<svg width="26" height="31" viewBox="0 0 26 31" fill="none" xmlns="http://www.w3.org/2000/svg">
<g filter="url(#filter0_d_2015_159)">
<path d="M12.9991 4.00424V25.3441C11.5462 25.3248 10.0899 25.6191 8.73547 26.2298C5.98096 27.4712 3.12015 24.7175 4.255 21.9173L7.87219 12.9945L10.6339 13.2054C11.039 13.236 11.3096 12.7964 11.0997 12.4486L9.3009 9.47006L11.0128 5.24936C11.37 4.3684 12.1984 3.95284 12.9991 4.00424Z" fill="#001F6A"/>
</g>
<g filter="url(#filter1_d_2015_159)">
<mask id="path-2-inside-1_2015_159" fill="white">
<path d="M13.0004 4.0061C13.7127 4.05196 14.4033 4.46753 14.7211 5.25122L18.1527 13.717L16.4837 16.3127C16.2644 16.6546 16.5232 17.1017 16.9291 17.0823L19.4671 16.9602L21.4779 21.9192C22.6131 24.7196 19.7522 27.4735 16.9974 26.2317C15.7258 25.6584 14.3644 25.365 13.0004 25.3469V4.0061Z"/>
</mask>
<path d="M13.0004 4.0061C13.7127 4.05196 14.4033 4.46753 14.7211 5.25122L18.1527 13.717L16.4837 16.3127C16.2644 16.6546 16.5232 17.1017 16.9291 17.0823L19.4671 16.9602L21.4779 21.9192C22.6131 24.7196 19.7522 27.4735 16.9974 26.2317C15.7258 25.6584 14.3644 25.365 13.0004 25.3469V4.0061Z" fill="#0040DD"/>
<path d="M13.0004 4.0061L13.0325 3.50714L12.5004 3.47288V4.0061H13.0004ZM14.7211 5.25122L15.1844 5.06339L15.1844 5.06337L14.7211 5.25122ZM18.1527 13.717L18.5733 13.9875L18.7134 13.7694L18.6161 13.5292L18.1527 13.717ZM16.4837 16.3127L16.0632 16.0423L16.0629 16.0427L16.4837 16.3127ZM16.9291 17.0823L16.953 17.5817L16.9531 17.5817L16.9291 17.0823ZM19.4671 16.9602L19.9305 16.7723L19.7973 16.4437L19.4431 16.4608L19.4671 16.9602ZM21.4779 21.9192L21.9413 21.7313L21.9412 21.7313L21.4779 21.9192ZM16.9974 26.2317L16.7919 26.6875L16.7919 26.6875L16.9974 26.2317ZM13.0004 25.3469H12.5004V25.8403L12.9937 25.8469L13.0004 25.3469ZM13.0004 4.0061L12.9682 4.50507C13.5065 4.53972 14.0184 4.84894 14.2577 5.43907L14.7211 5.25122L15.1844 5.06337C14.7882 4.08612 13.9189 3.5642 13.0325 3.50714L13.0004 4.0061ZM14.7211 5.25122L14.2577 5.43905L17.6893 13.9049L18.1527 13.717L18.6161 13.5292L15.1844 5.06339L14.7211 5.25122ZM18.1527 13.717L17.7321 13.4466L16.0632 16.0423L16.4837 16.3127L16.9043 16.5832L18.5733 13.9875L18.1527 13.717ZM16.4837 16.3127L16.0629 16.0427C15.6238 16.7271 16.1422 17.6205 16.953 17.5817L16.9291 17.0823L16.9052 16.5828L16.9046 16.5827L16.4837 16.3127ZM16.9291 17.0823L16.9531 17.5817L19.4912 17.4596L19.4671 16.9602L19.4431 16.4608L16.905 16.5829L16.9291 17.0823ZM19.4671 16.9602L19.0038 17.1481L21.0145 22.1071L21.4779 21.9192L21.9412 21.7313L19.9305 16.7723L19.4671 16.9602ZM21.4779 21.9192L21.0145 22.107C21.9804 24.4896 19.5463 26.8322 17.2029 25.7759L16.9974 26.2317L16.7919 26.6875C19.9581 28.1148 23.2459 24.9496 21.9413 21.7313L21.4779 21.9192ZM16.9974 26.2317L17.2029 25.7759C15.8675 25.1738 14.4383 24.866 13.007 24.847L13.0004 25.3469L12.9937 25.8469C14.2905 25.8641 15.5841 26.1429 16.7919 26.6875L16.9974 26.2317ZM13.0004 25.3469H13.5004V4.0061H13.0004H12.5004V25.3469H13.0004Z" fill="#001F6A" fill-opacity="0.2" mask="url(#path-2-inside-1_2015_159)"/>
</g>
<defs>
<filter id="filter0_d_2015_159" x="0" y="0" width="16.9991" height="30.5359" filterUnits="userSpaceOnUse" color-interpolation-filters="sRGB">
<feFlood flood-opacity="0" result="BackgroundImageFix"/>
<feColorMatrix in="SourceAlpha" type="matrix" values="0 0 0 0 0 0 0 0 0 0 0 0 0 0 0 0 0 0 127 0" result="hardAlpha"/>
<feOffset/>
<feGaussianBlur stdDeviation="2"/>
<feComposite in2="hardAlpha" operator="out"/>
<feColorMatrix type="matrix" values="0 0 0 0 0 0 0 0 0 0.25098 0 0 0 0 0.866667 0 0 0 1 0"/>
<feBlend mode="normal" in2="BackgroundImageFix" result="effect1_dropShadow_2015_159"/>
<feBlend mode="normal" in="SourceGraphic" in2="effect1_dropShadow_2015_159" result="shape"/>
</filter>
<filter id="filter1_d_2015_159" x="9.00035" y="0.00610352" width="16.7327" height="30.532" filterUnits="userSpaceOnUse" color-interpolation-filters="sRGB">
<feFlood flood-opacity="0" result="BackgroundImageFix"/>
<feColorMatrix in="SourceAlpha" type="matrix" values="0 0 0 0 0 0 0 0 0 0 0 0 0 0 0 0 0 0 127 0" result="hardAlpha"/>
<feOffset/>
<feGaussianBlur stdDeviation="2"/>
<feComposite in2="hardAlpha" operator="out"/>
<feColorMatrix type="matrix" values="0 0 0 0 0 0 0 0 0 0.25098 0 0 0 0 0.866667 0 0 0 1 0"/>
<feBlend mode="normal" in2="BackgroundImageFix" result="effect1_dropShadow_2015_159"/>
<feBlend mode="normal" in="SourceGraphic" in2="effect1_dropShadow_2015_159" result="shape"/>
</filter>
</defs>
</svg>
